<svg width="582" height="288" viewBox="0 0 582 288" fill="none" xmlns="http://www.w3.org/2000/svg">
<rect width="581.308" height="287.718" fill="#004491"/>
<path fill-rule="evenodd" clip-rule="evenodd" d="M0 0H581.308V287.718H0V0Z" fill="#004491"/>
<path d="M442.144 185.593C442.542 185.858 441.149 187.24 441.68 187.48C429.888 187.427 414.316 184.835 417.168 176.21L422.248 159.678C415.682 161.273 409.872 161.804 402.736 162.642C392.377 163.824 381.885 164.037 379.696 170.576C377.468 177.234 387.283 178.39 398.266 178.39C402.604 178.39 409.01 177.552 413.573 176.901C414.249 176.822 413.52 178.868 414.17 178.762L399.261 186.802C395.627 187.147 391.21 187.453 387.668 187.453C366.724 187.453 353.486 179.519 356.564 170.655C363.859 149.645 423.574 157.419 426.028 148.143C427.235 143.691 416.823 142.296 409.13 142.296C399.115 142.296 390.042 144.369 380.439 146.482C379.922 146.588 379.869 144.621 379.338 144.754L398.279 133.883L411.981 133.232C435.127 133.551 450.195 137.551 446.083 150.522L440.725 166.668C438.059 174.629 435.499 182.629 442.131 185.593H442.144Z" fill="white"/>
<path d="M538.468 174.241C531.796 176.859 522.352 178.361 515.707 178.361C492.693 178.361 476.365 171.184 480.477 158.812C483.873 148.619 499.776 142.306 519.871 142.306C529.183 142.306 538.574 144.007 543.389 147.569H544.728L549.013 134.652C542.049 133.788 533.189 133.19 525.734 133.19C494.457 133.19 462.623 143.144 456.482 161.589C451.8 175.557 473.765 187.424 505.679 187.424C514.778 187.424 525.562 186.879 534.82 185.138L538.481 174.241H538.468Z" fill="white"/>
<path d="M249.934 185.883C258.874 186.588 271.409 187.478 282.896 187.478C320.579 187.478 348.434 175.61 354.058 158.759C358.979 144.035 342.783 133.602 319.146 133.602C314.172 133.602 306.983 133.895 301.956 134.759L287.419 145.523C293.507 144.008 299.966 143.197 306.585 143.197C327.503 143.197 333.923 150.267 330.434 160.7C326.879 171.344 312.382 177.963 289.581 177.963C283.797 177.963 279.513 177.591 274.154 176.833L295.868 111.662L294.011 111.981C290.562 113.708 285.243 113.376 280.256 113.376H274.141L249.947 185.883H249.934Z" fill="white"/>
<path d="M186.212 186.055H215.141L215.791 184.088C207.581 181.417 209.796 178.401 211.454 173.444L216.481 158.068C220.169 146.984 227.305 143.675 243.023 143.675C246.551 143.675 250.663 144.698 252.52 145.988L256.658 133.588L247.997 133.19C237.664 133.19 229.507 135.861 222.649 139.874L224.851 133.19H222.861C219.545 134.505 214.518 134.598 209.756 134.598H203.35L186.212 186.042V186.055Z" fill="white"/>
<path d="M144.576 115.967C146.857 110.332 149.232 104.459 156.063 101.947L155.983 99.8205L132.837 99.8471L107.675 169.869L59.314 100.033L32.2949 100.166V102.292C41.4207 106.067 43.9541 110.678 47.9068 116.313L87.4738 172.753C93.4957 181.511 107.529 189.365 119.958 187.664L144.576 115.967Z" fill="white"/>
<path d="M143.767 186.056H172.564L173.293 184.116C165.083 181.418 167.298 178.083 168.956 173.165L182.472 132.912H180.482C175.535 133.43 170.68 133.43 165.918 133.43H161.156L143.767 186.043V186.056Z" fill="white"/>
<path d="M166.674 116.326H187.711L193.069 100.605H171.834L166.674 116.326Z" fill="white"/>
</svg>
